<?xml version="1.0" encoding="UTF-8" standalone="no"?>
<!DOCTYPE svg PUBLIC "-//W3C//DTD SVG 1.1//EN" "http://www.w3.org/Graphics/SVG/1.1/DTD/svg11.dtd">
<svg width="100%" height="100%" viewBox="0 0 24 24" version="1.1" xmlns="http://www.w3.org/2000/svg" xmlns:xlink="http://www.w3.org/1999/xlink" xml:space="preserve" xmlns:serif="http://www.serif.com/" style="fill-rule:evenodd;clip-rule:evenodd;stroke-linejoin:round;stroke-miterlimit:2;">
    <g transform="matrix(1,0,0,1,12,12)">
        <g transform="matrix(1,0,0,1,-12,-12)">
            <g transform="matrix(0.025,0,0,0.025,0,24)">
                <path d="M480,-381L556,-335C563.333,-330.333 570.667,-330.5 578,-335.5C585.333,-340.5 588,-347.333 586,-356L566,-443L634,-502C640.667,-508 642.667,-515.167 640,-523.5C637.333,-531.833 631.333,-536.333 622,-537L533,-544L498,-626C494.667,-634 488.667,-638 480,-638C471.333,-638 465.333,-634 462,-626L427,-544L338,-537C328.667,-536.333 322.667,-531.833 320,-523.5C317.333,-515.167 319.333,-508 326,-502L394,-443L374,-356C372,-347.333 374.667,-340.5 382,-335.5C389.333,-330.5 396.667,-330.333 404,-335L480,-381ZM346,-160L240,-160C218,-160 199.167,-167.833 183.5,-183.5C167.833,-199.167 160,-218 160,-240L160,-346L83,-424C75.667,-432 70,-440.833 66,-450.5C62,-460.167 60,-470 60,-480C60,-490 62,-499.833 66,-509.5C70,-519.167 75.667,-528 83,-536L160,-614L160,-720C160,-742 167.833,-760.833 183.5,-776.5C199.167,-792.167 218,-800 240,-800L346,-800L424,-877C432,-884.333 440.833,-890 450.5,-894C460.167,-898 470,-900 480,-900C490,-900 499.833,-898 509.5,-894C519.167,-890 528,-884.333 536,-877L614,-800L720,-800C742,-800 760.833,-792.167 776.5,-776.5C792.167,-760.833 800,-742 800,-720L800,-614L877,-536C884.333,-528 890,-519.167 894,-509.5C898,-499.833 900,-490 900,-480C900,-470 898,-460.167 894,-450.5C890,-440.833 884.333,-432 877,-424L800,-346L800,-240C800,-218 792.167,-199.167 776.5,-183.5C760.833,-167.833 742,-160 720,-160L614,-160L536,-83C528,-75.667 519.167,-70 509.5,-66C499.833,-62 490,-60 480,-60C470,-60 460.167,-62 450.5,-66C440.833,-70 432,-75.667 424,-83L346,-160ZM380,-240L480,-140L580,-240L720,-240L720,-380L820,-480L720,-580L720,-720L580,-720L480,-820L380,-720L240,-720L240,-580L140,-480L240,-380L240,-240L380,-240Z" style="fill:rgb(227,227,227);fill-rule:nonzero;"/>
            </g>
        </g>
    </g>
</svg>
