<?xml version="1.0" encoding="UTF-8" standalone="no"?>
<!DOCTYPE svg PUBLIC "-//W3C//DTD SVG 1.1//EN" "http://www.w3.org/Graphics/SVG/1.1/DTD/svg11.dtd">
<svg width="100%" height="100%" viewBox="0 0 24 24" version="1.1" xmlns="http://www.w3.org/2000/svg" xmlns:xlink="http://www.w3.org/1999/xlink" xml:space="preserve" xmlns:serif="http://www.serif.com/" style="fill-rule:evenodd;clip-rule:evenodd;stroke-linejoin:round;stroke-miterlimit:2;">
    <g transform="matrix(1,0,0,1,12,12)">
        <g transform="matrix(1,0,0,1,-12,-12)">
            <g transform="matrix(0.025,0,0,0.025,0,24)">
                <path d="M424,-408L338,-494C330.667,-501.333 321.333,-505 310,-505C298.667,-505 289.333,-501.333 282,-494C274.667,-486.667 271,-477.333 271,-466C271,-454.667 274.667,-445.333 282,-438L396,-324C404,-316 413.333,-312 424,-312C434.667,-312 444,-316 452,-324L678,-550C685.333,-557.333 689,-566.667 689,-578C689,-589.333 685.333,-598.667 678,-606C670.667,-613.333 661.333,-617 650,-617C638.667,-617 629.333,-613.333 622,-606L424,-408ZM480,-80C424.667,-80 372.667,-90.5 324,-111.5C275.333,-132.5 233,-161 197,-197C161,-233 132.5,-275.333 111.5,-324C90.5,-372.667 80,-424.667 80,-480C80,-535.333 90.5,-587.333 111.5,-636C132.5,-684.667 161,-727 197,-763C233,-799 275.333,-827.5 324,-848.5C372.667,-869.5 424.667,-880 480,-880C535.333,-880 587.333,-869.5 636,-848.5C684.667,-827.5 727,-799 763,-763C799,-727 827.5,-684.667 848.5,-636C869.5,-587.333 880,-535.333 880,-480C880,-424.667 869.5,-372.667 848.5,-324C827.5,-275.333 799,-233 763,-197C727,-161 684.667,-132.5 636,-111.5C587.333,-90.5 535.333,-80 480,-80ZM480,-160C569.333,-160 645,-191 707,-253C769,-315 800,-390.667 800,-480C800,-569.333 769,-645 707,-707C645,-769 569.333,-800 480,-800C390.667,-800 315,-769 253,-707C191,-645 160,-569.333 160,-480C160,-390.667 191,-315 253,-253C315,-191 390.667,-160 480,-160Z" style="fill:rgb(227,227,227);fill-rule:nonzero;"/>
            </g>
        </g>
    </g>
</svg>
