<?xml version="1.0" encoding="UTF-8" standalone="no"?>
<!DOCTYPE svg PUBLIC "-//W3C//DTD SVG 1.1//EN" "http://www.w3.org/Graphics/SVG/1.1/DTD/svg11.dtd">
<svg width="100%" height="100%" viewBox="0 0 24 24" version="1.1" xmlns="http://www.w3.org/2000/svg" xmlns:xlink="http://www.w3.org/1999/xlink" xml:space="preserve" xmlns:serif="http://www.serif.com/" style="fill-rule:evenodd;clip-rule:evenodd;stroke-linejoin:round;stroke-miterlimit:2;">
    <g transform="matrix(0.926804,0,0,0.926804,12,12)">
        <g transform="matrix(1,0,0,1,-12,-12)">
            <g transform="matrix(0.025,0,0,0.025,0,24)">
                <path d="M421,-340L452,-310C460,-302 469.333,-298 480,-298C490.667,-298 500,-302 508,-310L539,-340L580,-340C591.333,-340 600.833,-343.833 608.5,-351.5C616.167,-359.167 620,-368.667 620,-380L620,-421L650,-452C658,-460 662,-469.333 662,-480C662,-490.667 658,-500 650,-508L620,-539L620,-580C620,-591.333 616.167,-600.833 608.5,-608.5C600.833,-616.167 591.333,-620 580,-620L539,-620L501,-657C495,-663 488,-666 480,-666C472,-666 465,-663 459,-657L421,-620L380,-620C368.667,-620 359.167,-616.167 351.5,-608.5C343.833,-600.833 340,-591.333 340,-580L340,-539L310,-508C302,-500 298,-490.667 298,-480C298,-469.333 302,-460 310,-452L340,-421L340,-380C340,-368.667 343.833,-359.167 351.5,-351.5C359.167,-343.833 368.667,-340 380,-340L421,-340ZM346,-160L240,-160C218,-160 199.167,-167.833 183.5,-183.5C167.833,-199.167 160,-218 160,-240L160,-346L83,-424C75.667,-432 70,-440.833 66,-450.5C62,-460.167 60,-470 60,-480C60,-490 62,-499.833 66,-509.5C70,-519.167 75.667,-528 83,-536L160,-614L160,-720C160,-742 167.833,-760.833 183.5,-776.5C199.167,-792.167 218,-800 240,-800L346,-800L424,-877C432,-884.333 440.833,-890 450.5,-894C460.167,-898 470,-900 480,-900C490,-900 499.833,-898 509.5,-894C519.167,-890 528,-884.333 536,-877L614,-800L720,-800C742,-800 760.833,-792.167 776.5,-776.5C792.167,-760.833 800,-742 800,-720L800,-614L877,-536C884.333,-528 890,-519.167 894,-509.5C898,-499.833 900,-490 900,-480C900,-470 898,-460.167 894,-450.5C890,-440.833 884.333,-432 877,-424L800,-346L800,-240C800,-218 792.167,-199.167 776.5,-183.5C760.833,-167.833 742,-160 720,-160L614,-160L536,-83C528,-75.667 519.167,-70 509.5,-66C499.833,-62 490,-60 480,-60C470,-60 460.167,-62 450.5,-66C440.833,-70 432,-75.667 424,-83L346,-160Z" style="fill:rgb(227,227,227);fill-rule:nonzero;"/>
            </g>
        </g>
    </g>
</svg>
