<?xml version="1.0" encoding="UTF-8" standalone="no"?>
<!DOCTYPE svg PUBLIC "-//W3C//DTD SVG 1.1//EN" "http://www.w3.org/Graphics/SVG/1.1/DTD/svg11.dtd">
<svg width="100%" height="100%" viewBox="0 0 24 24" version="1.1" xmlns="http://www.w3.org/2000/svg" xmlns:xlink="http://www.w3.org/1999/xlink" xml:space="preserve" xmlns:serif="http://www.serif.com/" style="fill-rule:evenodd;clip-rule:evenodd;stroke-linejoin:round;stroke-miterlimit:2;">
    <g transform="matrix(0.936456,0,0,0.936456,12,12)">
        <g transform="matrix(1,0,0,1,-12,-12)">
            <g transform="matrix(0.025,0,0,0.025,0,24)">
                <path d="M346,-160L240,-160C218,-160 199.167,-167.833 183.5,-183.5C167.833,-199.167 160,-218 160,-240L160,-346L83,-424C75.667,-432 70,-440.833 66,-450.5C62,-460.167 60,-470 60,-480C60,-490 62,-499.833 66,-509.5C70,-519.167 75.667,-528 83,-536L160,-614L160,-720C160,-742 167.833,-760.833 183.5,-776.5C199.167,-792.167 218,-800 240,-800L346,-800L424,-877C432,-884.333 440.833,-890 450.5,-894C460.167,-898 470,-900 480,-900C490,-900 499.833,-898 509.5,-894C519.167,-890 528,-884.333 536,-877L614,-800L720,-800C742,-800 760.833,-792.167 776.5,-776.5C792.167,-760.833 800,-742 800,-720L800,-614L877,-536C884.333,-528 890,-519.167 894,-509.5C898,-499.833 900,-490 900,-480C900,-470 898,-460.167 894,-450.5C890,-440.833 884.333,-432 877,-424L800,-346L800,-240C800,-218 792.167,-199.167 776.5,-183.5C760.833,-167.833 742,-160 720,-160L614,-160L536,-83C528,-75.667 519.167,-70 509.5,-66C499.833,-62 490,-60 480,-60C470,-60 460.167,-62 450.5,-66C440.833,-70 432,-75.667 424,-83L346,-160ZM621.5,-338.5C660.5,-377.5 680,-424.667 680,-480C680,-535.333 660.5,-582.5 621.5,-621.5C582.5,-660.5 535.333,-680 480,-680C424.667,-680 377.5,-660.5 338.5,-621.5C299.5,-582.5 280,-535.333 280,-480C280,-424.667 299.5,-377.5 338.5,-338.5C377.5,-299.5 424.667,-280 480,-280C535.333,-280 582.5,-299.5 621.5,-338.5ZM380,-240L480,-140L580,-240L720,-240L720,-380L820,-480L720,-580L720,-720L580,-720L480,-820L380,-720L240,-720L240,-580L140,-480L240,-380L240,-240L380,-240Z" style="fill:rgb(227,227,227);fill-rule:nonzero;"/>
            </g>
        </g>
    </g>
</svg>
