<?xml version="1.0" encoding="UTF-8" standalone="no"?>
<!DOCTYPE svg PUBLIC "-//W3C//DTD SVG 1.1//EN" "http://www.w3.org/Graphics/SVG/1.1/DTD/svg11.dtd">
<svg width="100%" height="100%" viewBox="0 0 24 24" version="1.1" xmlns="http://www.w3.org/2000/svg" xmlns:xlink="http://www.w3.org/1999/xlink" xml:space="preserve" xmlns:serif="http://www.serif.com/" style="fill-rule:evenodd;clip-rule:evenodd;stroke-linejoin:round;stroke-miterlimit:2;">
    <g transform="matrix(1,0,0,1,12,12)">
        <g transform="matrix(1,0,0,1,-12,-12)">
            <g transform="matrix(0.025,0,0,0.025,0,24)">
                <path d="M452,-332L332,-452C324,-460 320,-469.333 320,-480C320,-490.667 324,-500 332,-508L452,-628C460,-636 469.333,-640 480,-640C490.667,-640 500,-636 508,-628L628,-508C636,-500 640,-490.667 640,-480C640,-469.333 636,-460 628,-452L508,-332C500,-324 490.667,-320 480,-320C469.333,-320 460,-324 452,-332ZM536,-105C528.667,-97.667 520,-92 510,-88C500,-84 490,-82 480,-82C470,-82 460,-84 450,-88C440,-92 431.333,-97.667 424,-105L105,-424C97.667,-431.333 92,-440 88,-450C84,-460 82,-470 82,-480C82,-490 84,-500 88,-510C92,-520 97.667,-528.667 105,-536L423,-854C431,-862 439.833,-868 449.5,-872C459.167,-876 469.333,-878 480,-878C490.667,-878 500.833,-876 510.5,-872C520.167,-868 529,-862 537,-854L855,-536C862.333,-528.667 868,-520 872,-510C876,-500 878,-490 878,-480C878,-470 876,-460 872,-450C868,-440 862.333,-431.333 855,-424L536,-105ZM480,-192L768,-480L480,-768L192,-480L480,-192Z" style="fill:rgb(227,227,227);fill-rule:nonzero;"/>
            </g>
        </g>
    </g>
</svg>
