<?xml version="1.0" encoding="UTF-8" standalone="no"?>
<!DOCTYPE svg PUBLIC "-//W3C//DTD SVG 1.1//EN" "http://www.w3.org/Graphics/SVG/1.1/DTD/svg11.dtd">
<svg width="100%" height="100%" viewBox="0 0 24 24" version="1.1" xmlns="http://www.w3.org/2000/svg" xmlns:xlink="http://www.w3.org/1999/xlink" xml:space="preserve" xmlns:serif="http://www.serif.com/" style="fill-rule:evenodd;clip-rule:evenodd;stroke-linejoin:round;stroke-miterlimit:2;">
    <g transform="matrix(0.765333,0,0,0.765333,12,11.270099)">
        <g transform="matrix(1,0,0,1,-12,-12)">
            <g transform="matrix(0.025,0,0,0.025,0,24)">
                <path d="M535,-87C542.333,-85 550.833,-84.167 560.5,-84.5C570.167,-84.833 578.333,-86.333 585,-89L880,-200C880,-222.667 872,-241.667 856,-257C840,-272.333 821.333,-280 800,-280L526,-280C524,-280 521.667,-280.167 519,-280.5C516.333,-280.833 514.333,-281.333 513,-282L454,-303C448.667,-305 445,-308.333 443,-313C441,-317.667 440.667,-322.667 442,-328C443.333,-332.667 446.667,-336.333 452,-339C457.333,-341.667 462.667,-342 468,-340L513,-323C515.667,-321.667 517.833,-320.833 519.5,-320.5C521.167,-320.167 523.667,-320 527,-320L632,-320C644.667,-320 655.833,-324.333 665.5,-333C675.167,-341.667 680,-353 680,-367C680,-376.333 677.167,-385.333 671.5,-394C665.833,-402.667 658.333,-408.667 649,-412L372,-515C367.333,-516.333 362.667,-517.5 358,-518.5C353.333,-519.5 348.667,-520 344,-520L280,-520L280,-159L535,-87ZM40,-160C40,-138 47.833,-119.167 63.5,-103.5C79.167,-87.833 98,-80 120,-80C142,-80 160.833,-87.833 176.5,-103.5C192.167,-119.167 200,-138 200,-160L200,-440C200,-462 192.167,-480.833 176.5,-496.5C160.833,-512.167 142,-520 120,-520C98,-520 79.167,-512.167 63.5,-496.5C47.833,-480.833 40,-462 40,-440L40,-160ZM610.5,-477.5C600.833,-481.167 592,-486.667 584,-494L474,-602C453.333,-622 435.833,-644.167 421.5,-668.5C407.167,-692.833 400,-719.333 400,-748C400,-784.667 412.833,-815.833 438.5,-841.5C464.167,-867.167 495.333,-880 532,-880C553.333,-880 573.333,-875.5 592,-866.5C610.667,-857.5 626.667,-845.333 640,-830C653.333,-845.333 669.333,-857.5 688,-866.5C706.667,-875.5 726.667,-880 748,-880C784.667,-880 815.833,-867.167 841.5,-841.5C867.167,-815.833 880,-784.667 880,-748C880,-719.333 873,-692.833 859,-668.5C845,-644.167 827.667,-622 807,-602L696,-494C688,-486.667 679.167,-481.167 669.5,-477.5C659.833,-473.833 650,-472 640,-472C630,-472 620.167,-473.833 610.5,-477.5Z" style="fill:rgb(227,227,227);fill-rule:nonzero;"/>
            </g>
        </g>
    </g>
</svg>
