<?xml version="1.0" encoding="UTF-8" standalone="no"?>
<!DOCTYPE svg PUBLIC "-//W3C//DTD SVG 1.1//EN" "http://www.w3.org/Graphics/SVG/1.1/DTD/svg11.dtd">
<svg width="100%" height="100%" viewBox="0 0 24 24" version="1.1" xmlns="http://www.w3.org/2000/svg" xmlns:xlink="http://www.w3.org/1999/xlink" xml:space="preserve" xmlns:serif="http://www.serif.com/" style="fill-rule:evenodd;clip-rule:evenodd;stroke-linejoin:round;stroke-miterlimit:2;">
    <g transform="matrix(0.963733,0,0,0.963733,12,11.5648)">
        <g transform="matrix(1,0,0,1,-12,-12)">
            <g transform="matrix(0.025,0,0,0.025,0,24)">
                <path d="M480,-320C458,-320 439.167,-327.833 423.5,-343.5C407.833,-359.167 400,-378 400,-400C400,-422 407.833,-440.833 423.5,-456.5C439.167,-472.167 458,-480 480,-480C502,-480 520.833,-472.167 536.5,-456.5C552.167,-440.833 560,-422 560,-400C560,-378 552.167,-359.167 536.5,-343.5C520.833,-327.833 502,-320 480,-320ZM295,-680L665,-680L716,-782C722.667,-795.333 722.167,-808.333 714.5,-821C706.833,-833.667 695.333,-840 680,-840L280,-840C264.667,-840 253.167,-833.667 245.5,-821C237.833,-808.333 237.333,-795.333 244,-782L295,-680ZM336,-120L624,-120C684,-120 735,-140.833 777,-182.5C819,-224.167 840,-275.333 840,-336C840,-361.333 835.667,-386 827,-410C818.333,-434 806,-455.667 790,-475L686,-600L274,-600L170,-475C154,-455.667 141.667,-434 133,-410C124.333,-386 120,-361.333 120,-336C120,-275.333 140.833,-224.167 182.5,-182.5C224.167,-140.833 275.333,-120 336,-120Z" style="fill:rgb(227,227,227);fill-rule:nonzero;"/>
            </g>
        </g>
    </g>
</svg>
