<?xml version="1.0" encoding="UTF-8" standalone="no"?>
<!DOCTYPE svg PUBLIC "-//W3C//DTD SVG 1.1//EN" "http://www.w3.org/Graphics/SVG/1.1/DTD/svg11.dtd">
<svg width="100%" height="100%" viewBox="0 0 24 24" version="1.1" xmlns="http://www.w3.org/2000/svg" xmlns:xlink="http://www.w3.org/1999/xlink" xml:space="preserve" xmlns:serif="http://www.serif.com/" style="fill-rule:evenodd;clip-rule:evenodd;stroke-linejoin:round;stroke-miterlimit:2;">
    <g transform="matrix(0.933333,0,0,0.933333,12,12)">
        <g transform="matrix(1,0,0,1,-12,-12)">
            <g transform="matrix(0.025,0,0,0.025,0,24)">
                <path d="M237,-120C221.667,-120 206.833,-125.333 192.5,-136C178.167,-146.667 168.667,-159.667 164,-175C147.333,-231 133.667,-279.5 123,-320.5C112.333,-361.5 103.833,-397.5 97.5,-428.5C91.167,-459.5 86.667,-487 84,-511C81.333,-535 80,-558 80,-580C80,-641.333 101.333,-693.333 144,-736C186.667,-778.667 238.667,-800 300,-800L500,-800C518,-824 540.833,-843.333 568.5,-858C596.167,-872.667 626.667,-880 660,-880C676.667,-880 690.833,-874.167 702.5,-862.5C714.167,-850.833 720,-836.667 720,-820C720,-816 719.5,-812 718.5,-808C717.5,-804 716.333,-800.333 715,-797C712.333,-789.667 709.833,-782.333 707.5,-775C705.167,-767.667 703.333,-759.667 702,-751L793,-660L840,-660C851.333,-660 860.833,-656.167 868.5,-648.5C876.167,-640.833 880,-631.333 880,-620L880,-410C880,-401.333 877.5,-393.667 872.5,-387C867.5,-380.333 860.667,-375.333 852,-372L767,-344L717,-177C711.667,-159.667 702,-145.833 688,-135.5C674,-125.167 658,-120 640,-120L560,-120C538,-120 519.167,-127.833 503.5,-143.5C487.833,-159.167 480,-178 480,-200L400,-200C400,-178 392.167,-159.167 376.5,-143.5C360.833,-127.833 342,-120 320,-120L237,-120ZM668.5,-531.5C676.167,-539.167 680,-548.667 680,-560C680,-571.333 676.167,-580.833 668.5,-588.5C660.833,-596.167 651.333,-600 640,-600C628.667,-600 619.167,-596.167 611.5,-588.5C603.833,-580.833 600,-571.333 600,-560C600,-548.667 603.833,-539.167 611.5,-531.5C619.167,-523.833 628.667,-520 640,-520C651.333,-520 660.833,-523.833 668.5,-531.5ZM480,-600C491.333,-600 500.833,-603.833 508.5,-611.5C516.167,-619.167 520,-628.667 520,-640C520,-651.333 516.167,-660.833 508.5,-668.5C500.833,-676.167 491.333,-680 480,-680L360,-680C348.667,-680 339.167,-676.167 331.5,-668.5C323.833,-660.833 320,-651.333 320,-640C320,-628.667 323.833,-619.167 331.5,-611.5C339.167,-603.833 348.667,-600 360,-600L480,-600Z" style="fill:rgb(227,227,227);fill-rule:nonzero;"/>
            </g>
        </g>
    </g>
</svg>
