<?xml version="1.0" encoding="UTF-8" standalone="no"?>
<!DOCTYPE svg PUBLIC "-//W3C//DTD SVG 1.1//EN" "http://www.w3.org/Graphics/SVG/1.1/DTD/svg11.dtd">
<svg width="100%" height="100%" viewBox="0 0 24 24" version="1.1" xmlns="http://www.w3.org/2000/svg" xmlns:xlink="http://www.w3.org/1999/xlink" xml:space="preserve" xmlns:serif="http://www.serif.com/" style="fill-rule:evenodd;clip-rule:evenodd;stroke-linejoin:round;stroke-miterlimit:2;">
    <g transform="matrix(1,0,0,1,12,12.882517)">
        <g transform="matrix(1,0,0,1,-12,-12)">
            <g transform="matrix(0.025,0,0,0.025,0,24)">
                <path d="M484,-120C472.667,-120 463.167,-123.833 455.5,-131.5C447.833,-139.167 444,-148.667 444,-160C444,-164.667 445,-169.5 447,-174.5C449,-179.5 452,-184 456,-188L627,-359C631,-363 633,-367.833 633,-373.5C633,-379.167 631,-384 627,-388C623,-392 618.167,-393.833 612.5,-393.5C606.833,-393.167 602,-391 598,-387L428,-217C424,-213 419.667,-210 415,-208C410.333,-206 405.333,-205 400,-205C388.667,-205 379.167,-208.833 371.5,-216.5C363.833,-224.167 360,-233.667 360,-245C360,-251.667 361,-257.167 363,-261.5C365,-265.833 367.667,-269.667 371,-273L542,-444C546,-448 548,-452.667 548,-458C548,-463.333 546,-468 542,-472C538,-476 533.333,-478 528,-478C522.667,-478 518,-476 514,-472L343,-302C339,-298 334.667,-295 330,-293C325.333,-291 320,-290 314,-290C303.333,-290 294,-294 286,-302C278,-310 274,-319.333 274,-330C274,-335.333 275,-340.333 277,-345C279,-349.667 282,-354 286,-358L456,-528C460,-532 462,-536.833 462,-542.5C462,-548.167 460,-553 456,-557C452,-561 447.333,-563 442,-563C436.667,-563 432,-561 428,-557L258,-386C254.667,-382.667 250.667,-380 246,-378C241.333,-376 235.667,-375 229,-375C217.667,-375 208.167,-378.833 200.5,-386.5C192.833,-394.167 189,-403.667 189,-415C189,-420.333 190,-425.333 192,-430C194,-434.667 197,-439 201,-443L397,-639C404.333,-646.333 413.5,-649.667 424.5,-649C435.5,-648.333 444.667,-644.333 452,-637L574,-515C581.333,-507.667 590,-501.833 600,-497.5C610,-493.167 620,-491 630,-491C651.333,-491 670,-498.5 686,-513.5C702,-528.5 710,-547.667 710,-571C710,-580.333 708.333,-590 705,-600C701.667,-610 695.667,-619.333 687,-628L550,-765C542.667,-772.333 537.833,-780.333 535.5,-789C533.167,-797.667 534.333,-806 539,-814C545,-824 552.667,-831.333 562,-836C571.333,-840.667 581.667,-843 593,-843C607,-843 621.333,-839.667 636,-833C650.667,-826.333 664,-817 676,-805L845,-635C857,-623 865.833,-609.667 871.5,-595C877.167,-580.333 880,-563.333 880,-544C880,-530.667 877,-517.167 871,-503.5C865,-489.833 856.333,-477.333 845,-466L512,-132C506.667,-126.667 502,-123.333 498,-122C494,-120.667 489.333,-120 484,-120ZM116,-475C103.333,-484.333 93.833,-495.5 87.5,-508.5C81.167,-521.5 78,-535.333 78,-550C78,-565.333 81.167,-580.333 87.5,-595C93.833,-609.667 103,-623 115,-635L284,-805C295.333,-816.333 307.833,-825 321.5,-831C335.167,-837 349.667,-840 365,-840C381.667,-840 397.833,-837 413.5,-831C429.167,-825 442.667,-816.333 454,-805L659,-600C662.333,-596.667 665.167,-592.5 667.5,-587.5C669.833,-582.5 671,-577.333 671,-572C671,-560.667 667.167,-551.167 659.5,-543.5C651.833,-535.833 642.333,-532 631,-532C625.667,-532 620.5,-533.167 615.5,-535.5C610.5,-537.833 606.333,-540.667 603,-544L480,-666C464.667,-681.333 445.833,-689 423.5,-689C401.167,-689 382.333,-681.333 367,-666L179,-478C170.333,-469.333 160.167,-464.833 148.5,-464.5C136.833,-464.167 126,-467.667 116,-475Z" style="fill:rgb(227,227,227);fill-rule:nonzero;"/>
            </g>
        </g>
    </g>
</svg>
