<?xml version="1.0" encoding="UTF-8" standalone="no"?>
<!DOCTYPE svg PUBLIC "-//W3C//DTD SVG 1.1//EN" "http://www.w3.org/Graphics/SVG/1.1/DTD/svg11.dtd">
<svg width="100%" height="100%" viewBox="0 0 24 24" version="1.1" xmlns="http://www.w3.org/2000/svg" xmlns:xlink="http://www.w3.org/1999/xlink" xml:space="preserve" xmlns:serif="http://www.serif.com/" style="fill-rule:evenodd;clip-rule:evenodd;stroke-linejoin:round;stroke-miterlimit:2;">
    <g transform="matrix(0.862432,-0.313614,0.313614,0.862432,11.625081,12)">
        <g transform="matrix(1,0,0,1,-12,-12)">
            <g transform="matrix(0.025,0,0,0.025,0,24)">
                <path d="M259,-139C193,-205 160,-285.333 160,-380L160,-760C160,-771.333 163.833,-780.833 171.5,-788.5C179.167,-796.167 188.667,-800 200,-800C211.333,-800 220.833,-796.167 228.5,-788.5C236.167,-780.833 240,-771.333 240,-760L240,-520L320,-520L320,-840C320,-851.333 323.833,-860.833 331.5,-868.5C339.167,-876.167 348.667,-880 360,-880C371.333,-880 380.833,-876.167 388.5,-868.5C396.167,-860.833 400,-851.333 400,-840L400,-520L480,-520L480,-880C480,-891.333 483.833,-900.833 491.5,-908.5C499.167,-916.167 508.667,-920 520,-920C531.333,-920 540.833,-916.167 548.5,-908.5C556.167,-900.833 560,-891.333 560,-880L560,-520L640,-520L640,-800C640,-811.333 643.833,-820.833 651.5,-828.5C659.167,-836.167 668.667,-840 680,-840C691.333,-840 700.833,-836.167 708.5,-828.5C716.167,-820.833 720,-811.333 720,-800L720,-570C700.667,-556 685.833,-538.333 675.5,-517C665.167,-495.667 660,-473.333 660,-450L660,-400L610,-400C568,-400 532.5,-385.5 503.5,-356.5C474.5,-327.5 460,-292 460,-250L460,-200C460,-191.333 462.833,-184.167 468.5,-178.5C474.167,-172.833 481.333,-170 490,-170C498.667,-170 505.833,-172.833 511.5,-178.5C517.167,-184.167 520,-191.333 520,-200L520,-250C520,-275.333 528.667,-296.667 546,-314C563.333,-331.333 584.667,-340 610,-340L680,-340C691.333,-340 700.833,-343.833 708.5,-351.5C716.167,-359.167 720,-368.667 720,-380L720,-450C720,-475.333 728.667,-496.667 746,-514C763.333,-531.333 784.667,-540 810,-540C818.667,-540 825.833,-537.167 831.5,-531.5C837.167,-525.833 840,-518.667 840,-510L840,-380C840,-285.333 807,-205 741,-139C675,-73 594.667,-40 500,-40C405.333,-40 325,-73 259,-139Z" style="fill:rgb(227,227,227);fill-rule:nonzero;"/>
            </g>
        </g>
    </g>
</svg>
