<?xml version="1.0" encoding="UTF-8" standalone="no"?>
<!DOCTYPE svg PUBLIC "-//W3C//DTD SVG 1.1//EN" "http://www.w3.org/Graphics/SVG/1.1/DTD/svg11.dtd">
<svg width="100%" height="100%" viewBox="0 0 24 24" version="1.1" xmlns="http://www.w3.org/2000/svg" xmlns:xlink="http://www.w3.org/1999/xlink" xml:space="preserve" xmlns:serif="http://www.serif.com/" style="fill-rule:evenodd;clip-rule:evenodd;stroke-linejoin:round;stroke-miterlimit:2;">
    <g transform="matrix(0.025,0,0,0.025,0,25.65625)">
        <path d="M480,-120L422,-172C354.667,-232.667 299,-285 255,-329C211,-373 176,-412.5 150,-447.5C124,-482.5 105.833,-514.667 95.5,-544C85.167,-573.333 80,-603.333 80,-634C80,-696.667 101,-749 143,-791C185,-833 237.333,-854 300,-854C334.667,-854 367.667,-846.667 399,-832C430.333,-817.333 457.333,-796.667 480,-770C502.667,-796.667 529.667,-817.333 561,-832C592.333,-846.667 625.333,-854 660,-854C722.667,-854 775,-833 817,-791C859,-749 880,-696.667 880,-634C880,-603.333 874.833,-573.333 864.5,-544C854.167,-514.667 836,-482.5 810,-447.5C784,-412.5 749,-373 705,-329C661,-285 605.333,-232.667 538,-172L480,-120ZM480,-228C544,-285.333 596.667,-334.5 638,-375.5C679.333,-416.5 712,-452.167 736,-482.5C760,-512.833 776.667,-539.833 786,-563.5C795.333,-587.167 800,-610.667 800,-634C800,-674 786.667,-707.333 760,-734C733.333,-760.667 700,-774 660,-774C628.667,-774 599.667,-765.167 573,-747.5C546.333,-729.833 528,-707.333 518,-680L442,-680C432,-707.333 413.667,-729.833 387,-747.5C360.333,-765.167 331.333,-774 300,-774C260,-774 226.667,-760.667 200,-734C173.333,-707.333 160,-674 160,-634C160,-610.667 164.667,-587.167 174,-563.5C183.333,-539.833 200,-512.833 224,-482.5C248,-452.167 280.667,-416.5 322,-375.5C363.333,-334.5 416,-285.333 480,-228Z" style="fill:rgb(227,227,227);fill-rule:nonzero;"/>
    </g>
</svg>
