<?xml version="1.0" encoding="UTF-8" standalone="no"?>
<!DOCTYPE svg PUBLIC "-//W3C//DTD SVG 1.1//EN" "http://www.w3.org/Graphics/SVG/1.1/DTD/svg11.dtd">
<svg width="100%" height="100%" viewBox="0 0 24 24" version="1.1" xmlns="http://www.w3.org/2000/svg" xmlns:xlink="http://www.w3.org/1999/xlink" xml:space="preserve" xmlns:serif="http://www.serif.com/" style="fill-rule:evenodd;clip-rule:evenodd;stroke-linejoin:round;stroke-miterlimit:2;">
    <g transform="matrix(1,0,0,1,12,13.744959)">
        <g transform="matrix(1,0,0,1,-12,-12)">
            <g transform="matrix(0.025,0,0,0.025,0,24)">
                <path d="M451.5,-152C441.833,-155.333 433.333,-160.667 426,-168L357,-231C286.333,-295.667 222.5,-359.833 165.5,-423.5C108.5,-487.167 80,-557.333 80,-634C80,-696.667 101,-749 143,-791C185,-833 237.333,-854 300,-854C335.333,-854 368.667,-846.5 400,-831.5C431.333,-816.5 458,-796 480,-770C502,-796 528.667,-816.5 560,-831.5C591.333,-846.5 624.667,-854 660,-854C722.667,-854 775,-833 817,-791C859,-749 880,-696.667 880,-634C880,-557.333 851.667,-487 795,-423C738.333,-359 674,-294.667 602,-230L534,-168C526.667,-160.667 518.167,-155.333 508.5,-152C498.833,-148.667 489.333,-147 480,-147C470.667,-147 461.167,-148.667 451.5,-152ZM442,-690C422.667,-717.333 402,-738.167 380,-752.5C358,-766.833 331.333,-774 300,-774C260,-774 226.667,-760.667 200,-734C173.333,-707.333 160,-674 160,-634C160,-599.333 172.333,-562.5 197,-523.5C221.667,-484.5 251.167,-446.667 285.5,-410C319.833,-373.333 355.167,-339 391.5,-307C427.833,-275 457.333,-248.667 480,-228C502.667,-248.667 532.167,-275 568.5,-307C604.833,-339 640.167,-373.333 674.5,-410C708.833,-446.667 738.333,-484.5 763,-523.5C787.667,-562.5 800,-599.333 800,-634C800,-674 786.667,-707.333 760,-734C733.333,-760.667 700,-774 660,-774C628.667,-774 602,-766.833 580,-752.5C558,-738.167 537.333,-717.333 518,-690C513.333,-683.333 507.667,-678.333 501,-675C494.333,-671.667 487.333,-670 480,-670C472.667,-670 465.667,-671.667 459,-675C452.333,-678.333 446.667,-683.333 442,-690Z" style="fill:rgb(227,227,227);fill-rule:nonzero;"/>
            </g>
        </g>
    </g>
</svg>
