<?xml version="1.0" encoding="UTF-8" standalone="no"?>
<!DOCTYPE svg PUBLIC "-//W3C//DTD SVG 1.1//EN" "http://www.w3.org/Graphics/SVG/1.1/DTD/svg11.dtd">
<svg width="100%" height="100%" viewBox="0 0 24 24" version="1.1" xmlns="http://www.w3.org/2000/svg" xmlns:xlink="http://www.w3.org/1999/xlink" xml:space="preserve" xmlns:serif="http://www.serif.com/" style="fill-rule:evenodd;clip-rule:evenodd;stroke-linejoin:round;stroke-miterlimit:2;">
    <g transform="matrix(1,0,0,1,12,12)">
        <g transform="matrix(1,0,0,1,-12,-12)">
            <g transform="matrix(0.025,0,0,0.025,0,24)">
                <path d="M440,-440L440,-320C440,-308.667 443.833,-299.167 451.5,-291.5C459.167,-283.833 468.667,-280 480,-280C491.333,-280 500.833,-283.833 508.5,-291.5C516.167,-299.167 520,-308.667 520,-320L520,-440L640,-440C651.333,-440 660.833,-443.833 668.5,-451.5C676.167,-459.167 680,-468.667 680,-480C680,-491.333 676.167,-500.833 668.5,-508.5C660.833,-516.167 651.333,-520 640,-520L520,-520L520,-640C520,-651.333 516.167,-660.833 508.5,-668.5C500.833,-676.167 491.333,-680 480,-680C468.667,-680 459.167,-676.167 451.5,-668.5C443.833,-660.833 440,-651.333 440,-640L440,-520L320,-520C308.667,-520 299.167,-516.167 291.5,-508.5C283.833,-500.833 280,-491.333 280,-480C280,-468.667 283.833,-459.167 291.5,-451.5C299.167,-443.833 308.667,-440 320,-440L440,-440ZM480,-80C424.667,-80 372.667,-90.5 324,-111.5C275.333,-132.5 233,-161 197,-197C161,-233 132.5,-275.333 111.5,-324C90.5,-372.667 80,-424.667 80,-480C80,-535.333 90.5,-587.333 111.5,-636C132.5,-684.667 161,-727 197,-763C233,-799 275.333,-827.5 324,-848.5C372.667,-869.5 424.667,-880 480,-880C535.333,-880 587.333,-869.5 636,-848.5C684.667,-827.5 727,-799 763,-763C799,-727 827.5,-684.667 848.5,-636C869.5,-587.333 880,-535.333 880,-480C880,-424.667 869.5,-372.667 848.5,-324C827.5,-275.333 799,-233 763,-197C727,-161 684.667,-132.5 636,-111.5C587.333,-90.5 535.333,-80 480,-80ZM480,-160C569.333,-160 645,-191 707,-253C769,-315 800,-390.667 800,-480C800,-569.333 769,-645 707,-707C645,-769 569.333,-800 480,-800C390.667,-800 315,-769 253,-707C191,-645 160,-569.333 160,-480C160,-390.667 191,-315 253,-253C315,-191 390.667,-160 480,-160Z" style="fill:rgb(227,227,227);fill-rule:nonzero;"/>
            </g>
        </g>
    </g>
</svg>
