<?xml version="1.0" encoding="UTF-8" standalone="no"?>
<!DOCTYPE svg PUBLIC "-//W3C//DTD SVG 1.1//EN" "http://www.w3.org/Graphics/SVG/1.1/DTD/svg11.dtd">
<svg width="100%" height="100%" viewBox="0 0 24 24" version="1.1" xmlns="http://www.w3.org/2000/svg" xmlns:xlink="http://www.w3.org/1999/xlink" xml:space="preserve" xmlns:serif="http://www.serif.com/" style="fill-rule:evenodd;clip-rule:evenodd;stroke-linejoin:round;stroke-miterlimit:2;">
    <g transform="matrix(0.798667,0,0,0.798667,12,12)">
        <g transform="matrix(1,0,0,1,-12,-12)">
            <g transform="matrix(0.025,0,0,0.025,0,24)">
                <path d="M680,-39C668.667,-39 659.167,-43 651.5,-51C643.833,-59 640,-68.667 640,-80C640,-91.333 643.833,-100.833 651.5,-108.5C659.167,-116.167 668.667,-120 680,-120C724,-120 761.667,-135.667 793,-167C824.333,-198.333 840,-236 840,-280C840,-291.333 844,-301 852,-309C860,-317 869.667,-321 881,-321C892.333,-321 901.833,-317 909.5,-309C917.167,-301 921,-291.333 921,-280C921,-213.333 897.5,-156.5 850.5,-109.5C803.5,-62.5 746.667,-39 680,-39ZM80,-640C68.667,-640 59,-643.833 51,-651.5C43,-659.167 39,-668.667 39,-680C39,-746.667 62.5,-803.5 109.5,-850.5C156.5,-897.5 213.333,-921 280,-921C291.333,-921 301,-917.167 309,-909.5C317,-901.833 321,-892.333 321,-881C321,-869.667 317,-860 309,-852C301,-844 291.333,-840 280,-840C236,-840 198.333,-824.333 167,-793C135.667,-761.667 120,-724 120,-680C120,-668.667 116.167,-659.167 108.5,-651.5C100.833,-643.833 91.333,-640 80,-640ZM212,-211C151.333,-271.667 121,-344.667 121,-430C121,-515.333 151.333,-588.333 212,-649L270,-708C273.333,-711.333 277.333,-713 282,-713C286.667,-713 290.667,-711.333 294,-708C313.333,-688.667 323,-665.167 323,-637.5C323,-609.833 313.333,-586.333 294,-567L280,-553C272,-545 268,-535.5 268,-524.5C268,-513.5 272,-504 280,-496L316,-460C333.333,-442.667 342,-421.667 342,-397C342,-372.333 333.333,-351.333 316,-334C310,-328 307,-320.833 307,-312.5C307,-304.167 310,-297 316,-291C322,-285 329.167,-282 337.5,-282C345.833,-282 353,-285 359,-291C388.333,-320.333 403,-355.5 403,-396.5C403,-437.5 388,-473 358,-503L336,-525C353.333,-542.333 365.667,-561.833 373,-583.5C380.333,-605.167 383.333,-627.333 382,-650L561,-829C569,-837 578.5,-841 589.5,-841C600.5,-841 610,-837 618,-829C626,-821 630,-811.5 630,-800.5C630,-789.5 626,-780 618,-772L431,-585L473,-543L714,-783C722,-791 731.333,-795 742,-795C752.667,-795 762,-791 770,-783C778,-775 782,-765.667 782,-755C782,-744.333 778,-735 770,-727L530,-486L572,-444L784,-656C792,-664 801.5,-668 812.5,-668C823.5,-668 833,-664 841,-656C849,-648 853,-638.5 853,-627.5C853,-616.5 849,-607 841,-599L629,-387L671,-345L833,-507C841,-515 850.5,-519 861.5,-519C872.5,-519 882,-515 890,-507C898,-499 902,-489.5 902,-478.5C902,-467.5 898,-458 890,-450L650,-211C589.333,-150.333 516.333,-120 431,-120C345.667,-120 272.667,-150.333 212,-211Z" style="fill:rgb(227,227,227);fill-rule:nonzero;"/>
            </g>
        </g>
    </g>
</svg>
