<?xml version="1.0" encoding="UTF-8" standalone="no"?>
<!DOCTYPE svg PUBLIC "-//W3C//DTD SVG 1.1//EN" "http://www.w3.org/Graphics/SVG/1.1/DTD/svg11.dtd">
<svg width="100%" height="100%" viewBox="0 0 24 24" version="1.1" xmlns="http://www.w3.org/2000/svg" xmlns:xlink="http://www.w3.org/1999/xlink" xml:space="preserve" xmlns:serif="http://www.serif.com/" style="fill-rule:evenodd;clip-rule:evenodd;stroke-linejoin:round;stroke-miterlimit:2;">
    <g transform="matrix(1.271734,-0.09395,0.09395,1.271734,12,12.4096)">
        <g transform="matrix(1,0,0,1,-8,-8)">
            <clipPath id="_clip1">
                <rect x="0" y="0" width="16" height="16"/>
            </clipPath>
            <g clip-path="url(#_clip1)">
                <path d="M7.657,6.247C7.767,5.917 8.233,5.917 8.343,6.247L8.988,8.184C9.276,9.047 9.954,9.725 10.817,10.012L12.753,10.657C13.083,10.767 13.083,11.233 12.753,11.343L10.816,11.988C9.953,12.276 9.275,12.954 8.988,13.817L8.343,15.753C8.294,15.901 8.156,16.001 8,16.001C7.844,16.001 7.706,15.901 7.657,15.753L7.012,13.816C6.725,12.954 6.046,12.275 5.184,11.988L3.247,11.343C3.099,11.294 2.999,11.156 2.999,11C2.999,10.844 3.099,10.706 3.247,10.657L5.184,10.012C6.046,9.725 6.725,9.046 7.012,8.184L7.657,6.247ZM3.794,1.148C3.823,1.059 3.907,0.999 4,0.999C4.093,0.999 4.177,1.059 4.206,1.148L4.593,2.31C4.766,2.828 5.172,3.234 5.69,3.407L6.852,3.794C6.941,3.823 7.001,3.907 7.001,4C7.001,4.093 6.941,4.177 6.852,4.206L5.69,4.593C5.172,4.765 4.765,5.172 4.593,5.69L4.206,6.852C4.177,6.941 4.093,7.001 4,7.001C3.907,7.001 3.823,6.941 3.794,6.852L3.407,5.69C3.235,5.172 2.828,4.765 2.31,4.593L1.148,4.206C1.059,4.177 0.999,4.093 0.999,4C0.999,3.907 1.059,3.823 1.148,3.794L2.31,3.407C2.828,3.235 3.235,2.828 3.407,2.31L3.794,1.148ZM10.863,0.099C10.883,0.041 10.938,0.001 11,0.001C11.062,0.001 11.117,0.041 11.137,0.099L11.395,0.873C11.51,1.219 11.781,1.49 12.127,1.605L12.901,1.863C12.959,1.883 12.999,1.938 12.999,2C12.999,2.062 12.959,2.117 12.901,2.137L12.127,2.395C11.782,2.51 11.51,2.782 11.395,3.127L11.137,3.901C11.117,3.959 11.062,3.999 11,3.999C10.938,3.999 10.883,3.959 10.863,3.901L10.605,3.127C10.49,2.782 10.218,2.51 9.873,2.395L9.1,2.137C9.042,2.117 9.002,2.062 9.002,2C9.002,1.938 9.042,1.883 9.1,1.863L9.874,1.605C10.22,1.49 10.491,1.219 10.606,0.873L10.863,0.099Z" style="fill-rule:nonzero;"/>
            </g>
        </g>
    </g>
</svg>
