<?xml version="1.0" encoding="UTF-8" standalone="no"?>
<!DOCTYPE svg PUBLIC "-//W3C//DTD SVG 1.1//EN" "http://www.w3.org/Graphics/SVG/1.1/DTD/svg11.dtd">
<svg width="100%" height="100%" viewBox="0 0 24 24" version="1.1" xmlns="http://www.w3.org/2000/svg" xmlns:xlink="http://www.w3.org/1999/xlink" xml:space="preserve" xmlns:serif="http://www.serif.com/" style="fill-rule:evenodd;clip-rule:evenodd;stroke-linejoin:round;stroke-miterlimit:2;">
    <g transform="matrix(1,0,0,1,11.997954,12)">
        <g transform="matrix(1,0,0,1,-12,-12)">
            <g transform="matrix(0.025,0,0,0.025,0,24)">
                <path d="M354,-287L480,-363L606,-286L573,-430L684,-526L538,-539L480,-675L422,-540L276,-527L387,-430L354,-287ZM480,-269L314,-169C306.667,-164.333 299,-162.333 291,-163C283,-163.667 276,-166.333 270,-171C264,-175.667 259.333,-181.5 256,-188.5C252.667,-195.5 252,-203.333 254,-212L298,-401L151,-528C144.333,-534 140.167,-540.833 138.5,-548.5C136.833,-556.167 137.333,-563.667 140,-571C142.667,-578.333 146.667,-584.333 152,-589C157.333,-593.667 164.667,-596.667 174,-598L368,-615L443,-793C446.333,-801 451.5,-807 458.5,-811C465.5,-815 472.667,-817 480,-817C487.333,-817 494.5,-815 501.5,-811C508.5,-807 513.667,-801 517,-793L592,-615L786,-598C795.333,-596.667 802.667,-593.667 808,-589C813.333,-584.333 817.333,-578.333 820,-571C822.667,-563.667 823.167,-556.167 821.5,-548.5C819.833,-540.833 815.667,-534 809,-528L662,-401L706,-212C708,-203.333 707.333,-195.5 704,-188.5C700.667,-181.5 696,-175.667 690,-171C684,-166.333 677,-163.667 669,-163C661,-162.333 653.333,-164.333 646,-169L480,-269Z" style="fill:rgb(227,227,227);fill-rule:nonzero;"/>
            </g>
        </g>
    </g>
</svg>
