<?xml version="1.0" encoding="UTF-8" standalone="no"?>
<!DOCTYPE svg PUBLIC "-//W3C//DTD SVG 1.1//EN" "http://www.w3.org/Graphics/SVG/1.1/DTD/svg11.dtd">
<svg width="100%" height="100%" viewBox="0 0 24 24" version="1.1" xmlns="http://www.w3.org/2000/svg" xmlns:xlink="http://www.w3.org/1999/xlink" xml:space="preserve" xmlns:serif="http://www.serif.com/" style="fill-rule:evenodd;clip-rule:evenodd;stroke-linejoin:round;stroke-miterlimit:2;">
    <g transform="matrix(0.858667,0,0,0.858667,12,12)">
        <g transform="matrix(1,0,0,1,-12,-12)">
            <g transform="matrix(0.025,0,0,0.025,0,24)">
                <path d="M788.5,-372C799.5,-372 809,-368 817,-360L880,-296C888,-288 892,-278.667 892,-268C892,-257.333 888,-248 880,-240C872,-232 862.667,-228 852,-228C841.333,-228 832,-232 824,-240L760,-303C752,-311 748,-320.5 748,-331.5C748,-342.5 752,-352 760,-360C768,-368 777.5,-372 788.5,-372ZM812,-811.5C812,-800.5 808,-791 800,-783L737,-720C729,-712 719.5,-708 708.5,-708C697.5,-708 688,-712 680,-720C672,-728 668,-737.5 668,-748.5C668,-759.5 672,-769 680,-777L744,-840C752,-848 761.333,-852 772,-852C782.667,-852 792,-848 800,-840C808,-832 812,-822.5 812,-811.5ZM188.5,-852C199.5,-852 209,-848 217,-840L280,-776C288,-768 292,-758.667 292,-748C292,-737.333 288,-728 280,-720C272,-712 262.5,-708 251.5,-708C240.5,-708 231,-712 223,-720L160,-783C152,-791 148,-800.5 148,-811.5C148,-822.5 152,-832 160,-840C168,-848 177.5,-852 188.5,-852ZM212,-331.5C212,-320.5 208,-311 200,-303L137,-240C129,-232 119.5,-228 108.5,-228C97.5,-228 88,-232 80,-240C72,-248 68,-257.5 68,-268.5C68,-279.5 72,-289 80,-297L144,-360C152,-368 161.333,-372 172,-372C182.667,-372 192,-368 200,-360C208,-352 212,-342.5 212,-331.5ZM480,-269L314,-169C306.667,-164.333 299,-162.333 291,-163C283,-163.667 276,-166.333 270,-171C264,-175.667 259.333,-181.5 256,-188.5C252.667,-195.5 252,-203.333 254,-212L298,-401L151,-528C144.333,-534 140.167,-540.833 138.5,-548.5C136.833,-556.167 137.333,-563.667 140,-571C142.667,-578.333 146.667,-584.333 152,-589C157.333,-593.667 164.667,-596.667 174,-598L368,-615L443,-793C446.333,-801 451.5,-807 458.5,-811C465.5,-815 472.667,-817 480,-817C487.333,-817 494.5,-815 501.5,-811C508.5,-807 513.667,-801 517,-793L592,-615L786,-598C795.333,-596.667 802.667,-593.667 808,-589C813.333,-584.333 817.333,-578.333 820,-571C822.667,-563.667 823.167,-556.167 821.5,-548.5C819.833,-540.833 815.667,-534 809,-528L662,-401L706,-212C708,-203.333 707.333,-195.5 704,-188.5C700.667,-181.5 696,-175.667 690,-171C684,-166.333 677,-163.667 669,-163C661,-162.333 653.333,-164.333 646,-169L480,-269Z" style="fill:rgb(227,227,227);fill-rule:nonzero;"/>
            </g>
        </g>
    </g>
</svg>
